<svg xmlns="http://www.w3.org/2000/svg" viewBox="0 0 64 64">
  <defs>
    <linearGradient id="bg" x1="8" y1="6" x2="56" y2="58" gradientUnits="userSpaceOnUse">
      <stop stop-color="#0f5d55"/>
      <stop offset="1" stop-color="#173f3a"/>
    </linearGradient>
  </defs>
  <rect width="64" height="64" rx="14" fill="url(#bg)"/>
  <path d="M13 15h17c8 0 13 4 13 10 0 4-2 7-6 9 5 1 8 5 8 10 0 8-6 12-15 12H13V15Zm10 8v8h6c3 0 5-1 5-4s-2-4-5-4h-6Zm0 16v9h7c4 0 6-1 6-4s-2-5-6-5h-7Z" fill="#fff"/>
  <path d="m40 15 6 11 6-11h10L51 34v22h-9V34L30 15h10Z" fill="#8dd3c7"/>
</svg>
